<?xml version="1.0" encoding="UTF-8" standalone="no"?>
<!DOCTYPE svg PUBLIC "-//W3C//DTD SVG 1.1//EN"
 "http://www.w3.org/Graphics/SVG/1.1/DTD/svg11.dtd">
<!-- Generated by graphviz version 2.47.0 (20210316.0004)
 -->
<!-- Title: dependencies Pages: 1 -->
<svg width="1348pt" height="363pt"
 viewBox="0.00 0.00 1348.00 363.00" xmlns="http://www.w3.org/2000/svg" xmlns:xlink="http://www.w3.org/1999/xlink">
<g id="graph0" class="graph" transform="scale(1 1) rotate(0) translate(4 359)">
<title>dependencies</title>
<polygon fill="white" stroke="transparent" points="-4,4 -4,-359 1344,-359 1344,4 -4,4"/>
<text text-anchor="start" x="649.01" y="-42.4" font-family="Times-12" font-weight="bold" font-size="14.00">Legend</text>
<polygon fill="#ffffb3" stroke="transparent" points="436,-10 436,-30 456,-30 456,-10 436,-10"/>
<text text-anchor="start" x="459.63" y="-15.4" font-family="Times-12" font-size="14.00"> &#160;Declarations</text>
<polygon fill="#8dd3c7" stroke="transparent" points="549,-10 549,-30 569,-30 569,-10 549,-10"/>
<text text-anchor="start" x="572.73" y="-15.4" font-family="Times-12" font-size="14.00"> &#160;Module</text>
<polygon fill="#80b1d3" stroke="transparent" points="635,-10 635,-30 655,-30 655,-10 635,-10"/>
<text text-anchor="start" x="658.78" y="-15.4" font-family="Times-12" font-size="14.00"> &#160;Bootstrap</text>
<polygon fill="#fdb462" stroke="transparent" points="732,-10 732,-30 752,-30 752,-10 732,-10"/>
<text text-anchor="start" x="755.67" y="-15.4" font-family="Times-12" font-size="14.00"> &#160;Providers</text>
<polygon fill="#fb8072" stroke="transparent" points="828,-10 828,-30 848,-30 848,-10 828,-10"/>
<text text-anchor="start" x="851.73" y="-15.4" font-family="Times-12" font-size="14.00"> &#160;Exports</text>
<g id="clust1" class="cluster">
<title>cluster_AppModule</title>
<polygon fill="none" stroke="black" stroke-dasharray="1,5" points="168,-146 168,-347 790,-347 790,-146 168,-146"/>
</g>
<g id="clust3" class="cluster">
<title>cluster_AppModule_imports</title>
<polygon fill="none" stroke="black" points="314,-154 314,-282 782,-282 782,-154 314,-154"/>
</g>
<g id="clust6" class="cluster">
<title>cluster_AppModule_providers</title>
<polygon fill="none" stroke="black" points="176,-230 176,-282 306,-282 306,-230 176,-230"/>
</g>
<g id="clust7" class="cluster">
<title>cluster_AuthModule</title>
<polygon fill="none" stroke="black" stroke-dasharray="1,5" points="798,-222 798,-290 1062,-290 1062,-222 798,-222"/>
</g>
<g id="clust10" class="cluster">
<title>cluster_AuthModule_exports</title>
<polygon fill="none" stroke="black" points="948,-230 948,-282 1054,-282 1054,-230 948,-230"/>
</g>
<g id="clust12" class="cluster">
<title>cluster_AuthModule_providers</title>
<polygon fill="none" stroke="black" points="806,-230 806,-282 940,-282 940,-230 806,-230"/>
</g>
<g id="clust13" class="cluster">
<title>cluster_MetaOptionsModule</title>
<polygon fill="none" stroke="black" stroke-dasharray="1,5" points="556,-70 556,-138 768,-138 768,-70 556,-70"/>
</g>
<g id="clust18" class="cluster">
<title>cluster_MetaOptionsModule_providers</title>
<polygon fill="none" stroke="black" points="564,-78 564,-130 760,-130 760,-78 564,-78"/>
</g>
<g id="clust19" class="cluster">
<title>cluster_PostsModule</title>
<polygon fill="none" stroke="black" stroke-dasharray="1,5" points="8,-146 8,-214 160,-214 160,-146 8,-146"/>
</g>
<g id="clust24" class="cluster">
<title>cluster_PostsModule_providers</title>
<polygon fill="none" stroke="black" points="16,-154 16,-206 152,-206 152,-154 16,-154"/>
</g>
<g id="clust25" class="cluster">
<title>cluster_TagsModule</title>
<polygon fill="none" stroke="black" stroke-dasharray="1,5" points="1070,-222 1070,-290 1332,-290 1332,-222 1070,-222"/>
</g>
<g id="clust28" class="cluster">
<title>cluster_TagsModule_exports</title>
<polygon fill="none" stroke="black" points="1220,-230 1220,-282 1324,-282 1324,-230 1220,-230"/>
</g>
<g id="clust30" class="cluster">
<title>cluster_TagsModule_providers</title>
<polygon fill="none" stroke="black" points="1078,-230 1078,-282 1212,-282 1212,-230 1078,-230"/>
</g>
<g id="clust31" class="cluster">
<title>cluster_UsersModule</title>
<polygon fill="none" stroke="black" stroke-dasharray="1,5" points="28,-70 28,-138 548,-138 548,-70 28,-70"/>
</g>
<g id="clust34" class="cluster">
<title>cluster_UsersModule_exports</title>
<polygon fill="none" stroke="black" points="430,-78 430,-130 540,-130 540,-78 430,-78"/>
</g>
<g id="clust36" class="cluster">
<title>cluster_UsersModule_providers</title>
<polygon fill="none" stroke="black" points="36,-78 36,-130 422,-130 422,-78 36,-78"/>
</g>
<!-- AuthModule -->
<g id="node1" class="node">
<title>AuthModule</title>
<polygon fill="#8dd3c7" stroke="black" points="669.55,-198 666.55,-202 645.55,-202 642.55,-198 582.45,-198 582.45,-162 669.55,-162 669.55,-198"/>
<text text-anchor="middle" x="626" y="-175.8" font-family="Times,serif" font-size="14.00">AuthModule</text>
</g>
<!-- AppModule -->
<g id="node6" class="node">
<title>AppModule</title>
<polygon fill="#8dd3c7" stroke="black" points="517.66,-339 514.66,-343 493.66,-343 490.66,-339 434.34,-339 434.34,-303 517.66,-303 517.66,-339"/>
<text text-anchor="middle" x="476" y="-316.8" font-family="Times,serif" font-size="14.00">AppModule</text>
</g>
<!-- AuthModule&#45;&gt;AppModule -->
<g id="edge1" class="edge">
<title>AuthModule&#45;&gt;AppModule</title>
<path fill="none" stroke="black" d="M626,-198.21C626,-235.06 626,-315 626,-315 626,-315 527.78,-315 527.78,-315"/>
<polygon fill="black" stroke="black" points="527.78,-311.5 517.78,-315 527.78,-318.5 527.78,-311.5"/>
</g>
<!-- AuthService  -->
<g id="node8" class="node">
<title>AuthService </title>
<polygon fill="#fb8072" stroke="black" points="1045.98,-274 956.02,-274 956.02,-238 1045.98,-238 1045.98,-274"/>
<text text-anchor="middle" x="1001" y="-251.8" font-family="Times,serif" font-size="14.00">AuthService </text>
</g>
<!-- AuthModule&#45;&gt;AuthService  -->
<g id="edge7" class="edge">
<title>AuthModule&#45;&gt;AuthService </title>
<path fill="none" stroke="black" stroke-dasharray="5,2" d="M604.11,-198.11C604.11,-207.9 604.11,-218 604.11,-218 604.11,-218 1001,-218 1001,-218 1001,-218 1001,-227.89 1001,-227.89"/>
<polygon fill="black" stroke="black" points="997.5,-227.89 1001,-237.89 1004.5,-227.89 997.5,-227.89"/>
</g>
<!-- MetaOptionsModule -->
<g id="node2" class="node">
<title>MetaOptionsModule</title>
<polygon fill="#8dd3c7" stroke="black" points="564.15,-198 561.15,-202 540.15,-202 537.15,-198 431.85,-198 431.85,-162 564.15,-162 564.15,-198"/>
<text text-anchor="middle" x="498" y="-175.8" font-family="Times,serif" font-size="14.00">MetaOptionsModule</text>
</g>
<!-- MetaOptionsModule&#45;&gt;AppModule -->
<g id="edge2" class="edge">
<title>MetaOptionsModule&#45;&gt;AppModule</title>
<path fill="none" stroke="black" d="M489.94,-198.14C489.94,-198.14 489.94,-292.93 489.94,-292.93"/>
<polygon fill="black" stroke="black" points="486.44,-292.92 489.94,-302.93 493.44,-292.93 486.44,-292.92"/>
</g>
<!-- PostsModule -->
<g id="node3" class="node">
<title>PostsModule</title>
<polygon fill="#8dd3c7" stroke="black" points="418.61,-274 415.61,-278 394.61,-278 391.61,-274 329.39,-274 329.39,-238 418.61,-238 418.61,-274"/>
<text text-anchor="middle" x="374" y="-251.8" font-family="Times,serif" font-size="14.00">PostsModule</text>
</g>
<!-- PostsModule&#45;&gt;AppModule -->
<g id="edge3" class="edge">
<title>PostsModule&#45;&gt;AppModule</title>
<path fill="none" stroke="black" d="M418.8,-265C440.56,-265 462.06,-265 462.06,-265 462.06,-265 462.06,-292.97 462.06,-292.97"/>
<polygon fill="black" stroke="black" points="458.56,-292.97 462.06,-302.97 465.56,-292.97 458.56,-292.97"/>
</g>
<!-- TagsModule -->
<g id="node4" class="node">
<title>TagsModule</title>
<polygon fill="#8dd3c7" stroke="black" points="774.26,-198 771.26,-202 750.26,-202 747.26,-198 687.74,-198 687.74,-162 774.26,-162 774.26,-198"/>
<text text-anchor="middle" x="731" y="-175.8" font-family="Times,serif" font-size="14.00">TagsModule</text>
</g>
<!-- TagsModule&#45;&gt;PostsModule -->
<g id="edge10" class="edge">
<title>TagsModule&#45;&gt;PostsModule</title>
<path fill="none" stroke="black" d="M716.54,-198.31C716.54,-218.15 716.54,-247 716.54,-247 716.54,-247 428.78,-247 428.78,-247"/>
<polygon fill="black" stroke="black" points="428.78,-243.5 418.78,-247 428.78,-250.5 428.78,-243.5"/>
</g>
<!-- TagsModule&#45;&gt;AppModule -->
<g id="edge4" class="edge">
<title>TagsModule&#45;&gt;AppModule</title>
<path fill="none" stroke="black" d="M745.46,-198.03C745.46,-237.28 745.46,-327 745.46,-327 745.46,-327 527.81,-327 527.81,-327"/>
<polygon fill="black" stroke="black" points="527.81,-323.5 517.81,-327 527.81,-330.5 527.81,-323.5"/>
</g>
<!-- TagsService  -->
<g id="node12" class="node">
<title>TagsService </title>
<polygon fill="#fb8072" stroke="black" points="1316.19,-274 1227.81,-274 1227.81,-238 1316.19,-238 1316.19,-274"/>
<text text-anchor="middle" x="1272" y="-251.8" font-family="Times,serif" font-size="14.00">TagsService </text>
</g>
<!-- TagsModule&#45;&gt;TagsService  -->
<g id="edge13" class="edge">
<title>TagsModule&#45;&gt;TagsService </title>
<path fill="none" stroke="black" stroke-dasharray="5,2" d="M774.36,-174C902.74,-174 1272,-174 1272,-174 1272,-174 1272,-227.8 1272,-227.8"/>
<polygon fill="black" stroke="black" points="1268.5,-227.8 1272,-237.8 1275.5,-227.8 1268.5,-227.8"/>
</g>
<!-- UsersModule -->
<g id="node5" class="node">
<title>UsersModule</title>
<polygon fill="#8dd3c7" stroke="black" points="413.92,-198 410.92,-202 389.92,-202 386.92,-198 322.08,-198 322.08,-162 413.92,-162 413.92,-198"/>
<text text-anchor="middle" x="368" y="-175.8" font-family="Times,serif" font-size="14.00">UsersModule</text>
</g>
<!-- UsersModule&#45;&gt;PostsModule -->
<g id="edge11" class="edge">
<title>UsersModule&#45;&gt;PostsModule</title>
<path fill="none" stroke="black" d="M371.58,-198.01C371.58,-198.01 371.58,-227.85 371.58,-227.85"/>
<polygon fill="black" stroke="black" points="368.08,-227.85 371.58,-237.85 375.08,-227.85 368.08,-227.85"/>
</g>
<!-- UsersModule&#45;&gt;AppModule -->
<g id="edge5" class="edge">
<title>UsersModule&#45;&gt;AppModule</title>
<path fill="none" stroke="black" d="M325.87,-198.21C325.87,-235.06 325.87,-315 325.87,-315 325.87,-315 424.18,-315 424.18,-315"/>
<polygon fill="black" stroke="black" points="424.18,-318.5 434.18,-315 424.18,-311.5 424.18,-318.5"/>
</g>
<!-- UsersService  -->
<g id="node14" class="node">
<title>UsersService </title>
<polygon fill="#fb8072" stroke="black" points="531.85,-122 438.15,-122 438.15,-86 531.85,-86 531.85,-122"/>
<text text-anchor="middle" x="485" y="-99.8" font-family="Times,serif" font-size="14.00">UsersService </text>
</g>
<!-- UsersModule&#45;&gt;UsersService  -->
<g id="edge15" class="edge">
<title>UsersModule&#45;&gt;UsersService </title>
<path fill="none" stroke="black" stroke-dasharray="5,2" d="M413.83,-180C420.47,-180 425.12,-180 425.12,-180 425.12,-180 425.12,-104 425.12,-104 425.12,-104 428.11,-104 428.11,-104"/>
<polygon fill="black" stroke="black" points="428.11,-107.5 438.11,-104 428.11,-100.5 428.11,-107.5"/>
</g>
<!-- AppService -->
<g id="node7" class="node">
<title>AppService</title>
<ellipse fill="#fdb462" stroke="black" cx="241" cy="-256" rx="56.74" ry="18"/>
<text text-anchor="middle" x="241" y="-251.8" font-family="Times,serif" font-size="14.00">AppService</text>
</g>
<!-- AppService&#45;&gt;AppModule -->
<g id="edge6" class="edge">
<title>AppService&#45;&gt;AppModule</title>
<path fill="none" stroke="black" d="M241,-274.28C241,-295.32 241,-327 241,-327 241,-327 424.26,-327 424.26,-327"/>
<polygon fill="black" stroke="black" points="424.26,-330.5 434.26,-327 424.26,-323.5 424.26,-330.5"/>
</g>
<!-- AuthService -->
<g id="node9" class="node">
<title>AuthService</title>
<ellipse fill="#fdb462" stroke="black" cx="873" cy="-256" rx="59.11" ry="18"/>
<text text-anchor="middle" x="873" y="-251.8" font-family="Times,serif" font-size="14.00">AuthService</text>
</g>
<!-- AuthService&#45;&gt;AuthModule -->
<g id="edge8" class="edge">
<title>AuthService&#45;&gt;AuthModule</title>
<path fill="none" stroke="black" d="M813.56,-256C746.87,-256 647.89,-256 647.89,-256 647.89,-256 647.89,-208.01 647.89,-208.01"/>
<polygon fill="black" stroke="black" points="651.39,-208.01 647.89,-198.01 644.39,-208.01 651.39,-208.01"/>
</g>
<!-- MetaOptionsService -->
<g id="node10" class="node">
<title>MetaOptionsService</title>
<ellipse fill="#fdb462" stroke="black" cx="662" cy="-104" rx="90.33" ry="18"/>
<text text-anchor="middle" x="662" y="-99.8" font-family="Times,serif" font-size="14.00">MetaOptionsService</text>
</g>
<!-- MetaOptionsService&#45;&gt;MetaOptionsModule -->
<g id="edge9" class="edge">
<title>MetaOptionsService&#45;&gt;MetaOptionsModule</title>
<path fill="none" stroke="black" d="M576.91,-110.22C576.91,-128.37 576.91,-180 576.91,-180 576.91,-180 574.23,-180 574.23,-180"/>
<polygon fill="black" stroke="black" points="574.23,-176.5 564.23,-180 574.23,-183.5 574.23,-176.5"/>
</g>
<!-- PostsService -->
<g id="node11" class="node">
<title>PostsService</title>
<ellipse fill="#fdb462" stroke="black" cx="84" cy="-180" rx="60.27" ry="18"/>
<text text-anchor="middle" x="84" y="-175.8" font-family="Times,serif" font-size="14.00">PostsService</text>
</g>
<!-- PostsService&#45;&gt;PostsModule -->
<g id="edge12" class="edge">
<title>PostsService&#45;&gt;PostsModule</title>
<path fill="none" stroke="black" d="M141.02,-186C207.96,-186 309.95,-186 309.95,-186 309.95,-186 309.95,-256 309.95,-256 309.95,-256 319.17,-256 319.17,-256"/>
<polygon fill="black" stroke="black" points="319.17,-259.5 329.17,-256 319.17,-252.5 319.17,-259.5"/>
</g>
<!-- TagsService -->
<g id="node13" class="node">
<title>TagsService</title>
<ellipse fill="#fdb462" stroke="black" cx="1145" cy="-256" rx="58.53" ry="18"/>
<text text-anchor="middle" x="1145" y="-251.8" font-family="Times,serif" font-size="14.00">TagsService</text>
</g>
<!-- TagsService&#45;&gt;TagsModule -->
<g id="edge14" class="edge">
<title>TagsService&#45;&gt;TagsModule</title>
<path fill="none" stroke="black" d="M1145,-237.97C1145,-217.23 1145,-186 1145,-186 1145,-186 784.52,-186 784.52,-186"/>
<polygon fill="black" stroke="black" points="784.52,-182.5 774.52,-186 784.52,-189.5 784.52,-182.5"/>
</g>
<!-- UsersCreateManyProvider -->
<g id="node15" class="node">
<title>UsersCreateManyProvider</title>
<ellipse fill="#fdb462" stroke="black" cx="300" cy="-104" rx="114" ry="18"/>
<text text-anchor="middle" x="300" y="-99.8" font-family="Times,serif" font-size="14.00">UsersCreateManyProvider</text>
</g>
<!-- UsersCreateManyProvider&#45;&gt;UsersModule -->
<g id="edge16" class="edge">
<title>UsersCreateManyProvider&#45;&gt;UsersModule</title>
<path fill="none" stroke="black" d="M368,-118.65C368,-118.65 368,-151.9 368,-151.9"/>
<polygon fill="black" stroke="black" points="364.5,-151.9 368,-161.9 371.5,-151.9 364.5,-151.9"/>
</g>
<!-- UsersService -->
<g id="node16" class="node">
<title>UsersService</title>
<ellipse fill="#fdb462" stroke="black" cx="106" cy="-104" rx="61.95" ry="18"/>
<text text-anchor="middle" x="106" y="-99.8" font-family="Times,serif" font-size="14.00">UsersService</text>
</g>
<!-- UsersService&#45;&gt;UsersModule -->
<g id="edge17" class="edge">
<title>UsersService&#45;&gt;UsersModule</title>
<path fill="none" stroke="black" d="M156.18,-114.63C156.18,-134.21 156.18,-174 156.18,-174 156.18,-174 312.04,-174 312.04,-174"/>
<polygon fill="black" stroke="black" points="312.04,-177.5 322.04,-174 312.04,-170.5 312.04,-177.5"/>
</g>
</g>
</svg>
